<?xml version="1.0" standalone="no"?><!DOCTYPE svg PUBLIC "-//W3C//DTD SVG 1.1//EN" "http://www.w3.org/Graphics/SVG/1.1/DTD/svg11.dtd"><svg t="1727068555111" class="icon" viewBox="0 0 1024 1024" version="1.1" xmlns="http://www.w3.org/2000/svg" p-id="8567" xmlns:xlink="http://www.w3.org/1999/xlink" width="200" height="200"><path d="M360.250854 91.745541 149.446707 91.745541c-47.202045 0-85.240383 37.553291-85.240383 84.147492l0 226.765677c0 46.597271 30.982642 77.724199 78.186733 77.724199l215.001749 0c47.201022 0 97.729835-31.127951 97.729835-77.724199l0-233.191016C455.124641 122.875538 407.452899 91.745541 360.250854 91.745541zM396.456451 384.005884c0 19.908422-19.354813 38.089503-39.061644 38.089503L161.939229 422.095387c-20.164249 0-39.090297-19.412119-39.090297-38.874379L122.848932 188.906417c0-19.900236 19.383466-38.870286 39.090297-38.870286l195.455577 0c20.166295 0 39.09439 19.412119 39.09439 38.870286L396.456451 384.005884zM591.944773 480.383932l215.001749 0c47.204092 0 97.729835-31.127951 97.729835-77.724199l0-233.191016c0-46.592155-47.671743-77.722152-94.873788-77.722152L598.999446 91.746564c-47.202045 0-85.23629 37.553291-85.23629 84.147492l0 226.765677C513.763157 449.25598 544.745798 480.383932 591.944773 480.383932zM572.400648 188.906417c0-19.900236 19.383466-38.870286 39.090297-38.870286l195.455577 0c20.166295 0 39.09439 19.412119 39.09439 38.870286l-0.032746 195.099467c0 19.908422-19.354813 38.089503-39.061644 38.089503L611.490945 422.095387c-20.162202 0-39.090297-19.412119-39.090297-38.874379L572.400648 188.906417zM360.250854 519.253194 149.446707 519.253194c-47.202045 0-85.240383 37.550221-85.240383 84.143399l0 226.765677c0 46.599318 30.982642 77.733409 78.186733 77.733409l215.001749 0c47.201022 0 97.729835-31.134091 97.729835-77.733409L455.124641 596.978417C455.124641 550.375006 407.452899 519.253194 360.250854 519.253194zM396.456451 811.511491c0 19.908422-19.354813 38.0762-39.061644 38.0762L161.939229 849.587692c-20.164249 0-39.090297-19.407002-39.090297-38.854936L122.848932 616.418164c0-19.908422 19.383466-38.870286 39.090297-38.870286l195.455577 0c20.166295 0 39.09439 19.412119 39.09439 38.870286L396.456451 811.511491zM949.103196 875.01992l-95.110171-95.112218c19.61064-31.703049 31.137161-68.630077 31.137161-105.198947 0-95.915513-98.30391-174.894286-195.455577-174.894286-97.15576 0-175.912475 98.40931-175.912475 194.3238 0 95.918583 98.301863 174.894286 195.455577 174.894286 37.755905 0 72.847122-15.004739 101.597933-39.006386l91.64321 91.639117c12.879332 12.881378 33.761941 12.881378 46.64332 0C961.986621 908.785955 961.986621 887.905392 949.103196 875.01992zM709.218734 810.732755c-73.782424 0-136.818085-43.75555-136.818085-116.594485 0-72.835865 43.49256-136.01479 117.27396-136.01479s136.818085 43.74941 136.818085 116.585275C826.492694 747.543597 783.001157 810.732755 709.218734 810.732755z" p-id="8568" fill="#1296db"></path></svg>